<svg width="128" height="128" viewBox="0 0 128 128" fill="none" xmlns="http://www.w3.org/2000/svg">
<path d="M121.722 0H6.27782C2.81067 0 0 2.81067 0 6.27782V121.722C0 125.189 2.81067 128 6.27782 128H121.722C125.189 128 128 125.189 128 121.722V6.27782C128 2.81067 125.189 0 121.722 0Z" fill="url(#paint0_linear_31_12)"/>
<path d="M17.3963 41.8152H110.592C111.098 41.8033 111.592 41.6596 112.025 41.3984C112.459 41.1371 112.817 40.7673 113.063 40.3255C113.31 39.8836 113.437 39.3851 113.432 38.879C113.428 38.373 113.291 37.877 113.036 37.44C111.865 35.4973 110.501 33.6785 108.963 32.0116C109.83 29.8938 112.71 21.3411 108.131 9.75705C108.131 9.75705 101.085 7.4996 85.0327 18.3738C71.2525 14.6036 56.7126 14.6036 42.9323 18.3738C26.8916 7.4996 19.8283 9.78614 19.8283 9.78614C15.2611 21.3643 18.1411 29.9171 19.0138 32.0407C17.476 33.7076 16.1114 35.5264 14.9411 37.4691C14.6925 37.9061 14.5615 38.4002 14.5608 38.903C14.5601 39.4058 14.6897 39.9002 14.937 40.338C15.1843 40.7757 15.5409 41.1419 15.9719 41.4008C16.4029 41.6598 16.8937 41.8025 17.3963 41.8152V41.8152Z" fill="white"/>
<path d="M55.4471 48.6226H19.2173C16.6306 48.6226 14.5337 50.7195 14.5337 53.3062V113.757C14.5337 116.344 16.6306 118.441 19.2173 118.441H55.4471C58.0339 118.441 60.1308 116.344 60.1308 113.757V53.3062C60.1308 50.7195 58.0339 48.6226 55.4471 48.6226Z" fill="white"/>
<path d="M108.759 48.6226H72.9425C70.343 48.6226 68.2356 50.7299 68.2356 53.3295V77.7542C68.2356 80.3537 70.343 82.4611 72.9425 82.4611H108.759C111.359 82.4611 113.466 80.3537 113.466 77.7542V53.3295C113.466 50.7299 111.359 48.6226 108.759 48.6226Z" fill="white"/>
<path d="M110.01 99.2L74.0772 91.1185C73.3897 90.941 72.6707 90.9231 71.9752 91.0663C71.2797 91.2094 70.6262 91.5098 70.0646 91.9444C69.5031 92.3791 69.0485 92.9364 68.7355 93.5738C68.4226 94.2112 68.2596 94.9117 68.259 95.6218V113.228C68.2569 114.318 68.5612 115.387 69.1372 116.313C69.7133 117.239 70.538 117.984 71.5172 118.464H108.835C110.07 118.464 111.253 117.974 112.126 117.101C112.999 116.228 113.49 115.044 113.49 113.809V103.697C113.488 102.669 113.146 101.669 112.517 100.856C111.887 100.042 111.006 99.4597 110.01 99.2V99.2Z" fill="white"/>
<defs>
<linearGradient id="paint0_linear_31_12" x1="64.0698" y1="3.92145" x2="63.9244" y2="131.921" gradientUnits="userSpaceOnUse">
<stop stop-color="#FFD98F"/>
<stop offset="0.125" stop-color="#FFC46A"/>
<stop offset="0.68" stop-color="#FDAE37"/>
<stop offset="1" stop-color="#F59E1B"/>
</linearGradient>
</defs>
</svg>
